HIERARCHY
ROOT Hips
{
	OFFSET 0.000000 0.000000 0.000000
	CHANNELS 6 Xposition Yposition Zposition Xrotation Yrotation Zrotation
	JOINT LeftUpLeg_virtual
	{
		OFFSET 0.000000 0.000000 0.000000
		CHANNELS 3 Xrotation Yrotation Zrotation
		JOINT LeftUpLeg
		{
			OFFSET 11.394100 -6.187798 -0.413800
			CHANNELS 3 Xrotation Yrotation Zrotation
			JOINT LeftLeg
			{
				OFFSET 0.430247 -32.302673 3.732800
				CHANNELS 3 Xrotation Yrotation Zrotation
				JOINT LeftFoot
				{
					OFFSET -0.430247 -48.264931 -6.423300
					CHANNELS 3 Xrotation Yrotation Zrotation
					JOINT LeftToeBase
					{
						OFFSET 4.230900 -16.068199 23.438400
						CHANNELS 3 Xrotation Yrotation Zrotation
						JOINT LeftToe_End
						{
							OFFSET 4.510700 0.695400 19.974600
							CHANNELS 3 Xrotation Yrotation Zrotation
							End Site
							{
								OFFSET 0 0 0
							}
						}
					}
				}
			}
		}
	}
	JOINT RightUpLeg_virtual
	{
		OFFSET 0.000000 0.000000 0.000000
		CHANNELS 3 Xrotation Yrotation Zrotation
		JOINT RightUpLeg
		{
			OFFSET -11.333700 -6.187798 -0.413800
			CHANNELS 3 Xrotation Yrotation Zrotation
			JOINT RightLeg
			{
				OFFSET -0.430392 -32.302628 3.733000
				CHANNELS 3 Xrotation Yrotation Zrotation
				JOINT RightFoot
				{
					OFFSET 0.430392 -48.264973 -6.423500
					CHANNELS 3 Xrotation Yrotation Zrotation
					JOINT RightToeBase
					{
						OFFSET -4.230900 -16.068199 23.438400
						CHANNELS 3 Xrotation Yrotation Zrotation
						JOINT RightToe_End
						{
							OFFSET -4.510700 0.695400 19.974600
							CHANNELS 3 Xrotation Yrotation Zrotation
							End Site
							{
								OFFSET 0 0 0
							}
						}
					}
				}
			}
		}
	}
	JOINT Spine_virtual
	{
		OFFSET 0.000000 0.000000 0.000000
		CHANNELS 3 Xrotation Yrotation Zrotation
		JOINT Spine
		{
			OFFSET -0.002400 12.777504 0.315300
			CHANNELS 3 Xrotation Yrotation Zrotation
			JOINT Spine1
			{
				OFFSET -0.002067 5.816869 0.032633
				CHANNELS 3 Xrotation Yrotation Zrotation
				JOINT Spine1_split
				{
					OFFSET -0.002067 5.816869 0.032633
					CHANNELS 3 Xrotation Yrotation Zrotation
					JOINT Spine2
					{
						OFFSET -0.002067 5.816869 0.032633
						CHANNELS 3 Xrotation Yrotation Zrotation
						JOINT Neck_virtual
						{
							OFFSET 0.000000 0.000000 0.000000
							CHANNELS 3 Xrotation Yrotation Zrotation
							JOINT Neck
							{
								OFFSET -0.003700 21.199493 -0.826900
								CHANNELS 3 Xrotation Yrotation Zrotation
								JOINT Head
								{
									OFFSET 0.000000 20.442200 4.834800
									CHANNELS 3 Xrotation Yrotation Zrotation
									JOINT HeadTop_End
									{
										OFFSET 0.000000 34.668396 4.968400
										CHANNELS 3 Xrotation Yrotation Zrotation
										End Site
										{
											OFFSET 0 0 0
										}
									}
								}
							}
						}
						JOINT LeftShoulder_virtual
						{
							OFFSET 0.000000 0.000000 0.000000
							CHANNELS 3 Xrotation Yrotation Zrotation
							JOINT LeftShoulder
							{
								OFFSET 3.288150 8.794197 -1.372250
								CHANNELS 3 Xrotation Yrotation Zrotation
								JOINT LeftShoulder_split
								{
									OFFSET 3.288150 8.794197 -1.372250
									CHANNELS 3 Xrotation Yrotation Zrotation
									JOINT LeftArm
									{
										OFFSET 11.953299 -2.279007 -0.146200
										CHANNELS 3 Xrotation Yrotation Zrotation
										JOINT LeftForeArm
										{
											OFFSET 18.448900 0.000000 0.000000
											CHANNELS 3 Xrotation Yrotation Zrotation
											JOINT LeftHand
											{
												OFFSET 29.527798 0.000000 0.000000
												CHANNELS 3 Xrotation Yrotation Zrotation
												End Site
												{
													OFFSET 0 0 0
												}
											}
										}
									}
								}
							}
						}
						JOINT RightShoulder_virtual
						{
							OFFSET 0.000000 0.000000 0.000000
							CHANNELS 3 Xrotation Yrotation Zrotation
							JOINT RightShoulder
							{
								OFFSET -3.249400 8.794197 -1.372250
								CHANNELS 3 Xrotation Yrotation Zrotation
								JOINT RightShoulder_split
								{
									OFFSET -3.249400 8.794197 -1.372250
									CHANNELS 3 Xrotation Yrotation Zrotation
									JOINT RightArm
									{
										OFFSET -11.953299 -2.279007 -0.146200
										CHANNELS 3 Xrotation Yrotation Zrotation
										JOINT RightForeArm
										{
											OFFSET -18.448900 0.000000 0.000000
											CHANNELS 3 Xrotation Yrotation Zrotation
											JOINT RightHand
											{
												OFFSET -29.527802 0.000000 0.000000
												CHANNELS 3 Xrotation Yrotation Zrotation
												End Site
												{
													OFFSET 0 0 0
												}
											}
										}
									}
								}
							}
						}
					}
				}
			}
		}
	}
}
MOTION
Frames: 10
Frame Time: 0.03333333
-0.188823 94.286110 0.073395 0.000000 0.000000 0.000000 -6.091915 -43.084488 -4.025007 -30.646560 5.355273 14.280877 33.550490 -15.708545 -0.504072 -0.446049 1.992659 -8.517082 -2.319089 -3.216965 0.802960 0.000000 0.000000 0.000000 -6.091915 -43.084488 -4.025007 -6.258907 -12.860985 -16.847509 32.349709 -9.247102 -0.477904 -18.034638 -3.758858 17.721821 -1.784976 -0.356668 0.333185 0.000000 0.000000 0.000000 -6.091915 -43.084488 -4.025007 5.833947 4.694798 -1.245663 11.836806 9.036866 -3.086775 0.000000 0.000000 0.000000 0.000000 0.000000 0.000000 11.836807 9.036863 -3.086779 -4.023275 -0.974171 0.382902 -6.479885 20.161235 -0.594152 0.000000 0.000000 0.000000 11.836807 9.036863 -3.086779 1.392481 -0.696029 -7.877868 0.000000 0.000000 0.000000 -14.270850 2.385502 -63.280774 9.855353 -47.499318 5.919383 0.000000 0.000000 0.000000 11.836807 9.036863 -3.086779 1.409760 9.464715 9.801444 0.000000 0.000000 0.000000 1.234155 -24.280856 60.535516 -6.660159 41.889007 8.039870 0.000000 0.000000 0.000000 
-0.122274 93.986511 -0.782402 0.000000 0.000000 0.000000 -3.382307 -40.520729 -3.454360 -35.403825 6.064032 15.332424 34.523898 -12.003240 1.371432 1.484839 -1.518377 -8.377917 -2.203004 -3.055416 0.763582 0.000000 0.000000 0.000000 -3.382307 -40.520729 -3.454360 -8.577301 -13.934810 -15.162392 33.670982 -8.172183 -1.198977 -18.406404 -3.680609 17.941691 -1.456844 -0.644450 0.637617 0.000000 0.000000 0.000000 -3.382307 -40.520729 -3.454360 5.927824 4.530835 -1.111063 12.004171 8.695475 -2.784134 0.000000 0.000000 0.000000 0.000000 0.000000 0.000000 12.004177 8.695488 -2.784140 -4.402250 -1.432521 -0.308001 -7.743048 19.546101 -0.146669 0.000000 0.000000 0.000000 12.004177 8.695488 -2.784140 1.744170 -1.717849 -6.596194 0.000000 0.000000 0.000000 -9.656327 2.899159 -62.029285 12.853450 -52.487060 6.201626 0.000000 0.000000 0.000000 12.004177 8.695488 -2.784140 1.665580 8.672810 8.386897 0.000000 0.000000 0.000000 -0.517093 -21.343885 59.835073 -0.867251 43.424061 3.841140 0.000000 0.000000 0.000000 
-0.118651 93.417755 -1.920418 0.000000 0.000000 0.000000 -0.431533 -37.971388 -3.230624 -41.192406 6.589642 17.620667 35.340871 -7.338649 2.610766 3.548642 -5.851210 -8.268836 -2.081891 -2.886982 0.722287 0.000000 0.000000 0.000000 -0.431533 -37.971388 -3.230624 -12.314407 -16.375020 -12.300277 36.067371 -6.422729 -4.192864 -18.870561 -3.608940 18.495910 -1.987812 -0.760841 0.377424 0.000000 0.000000 0.000000 -0.431533 -37.971388 -3.230624 6.056517 4.330185 -0.969189 12.238721 8.275165 -2.450793 0.000000 0.000000 0.000000 0.000000 0.000000 0.000000 12.238725 8.275164 -2.450793 -4.719265 -1.744780 -0.984015 -9.495648 19.031748 0.296237 0.000000 0.000000 0.000000 12.238725 8.275164 -2.450793 2.070255 -2.775725 -5.543034 0.000000 0.000000 0.000000 -4.738526 3.304523 -61.853360 16.932058 -58.793326 7.337204 0.000000 0.000000 0.000000 12.238725 8.275164 -2.450793 1.923292 8.317056 6.899309 0.000000 0.000000 0.000000 -1.712075 -18.994025 59.533541 3.482594 44.694914 -0.233183 0.000000 0.000000 0.000000 
-0.212875 92.330444 -3.369602 0.000000 0.000000 0.000000 2.822100 -35.458825 -3.259771 -48.410127 6.944049 20.874101 36.513727 -2.201058 3.447185 5.956993 -10.510191 -7.824579 -1.957515 -2.714171 0.679677 0.000000 0.000000 0.000000 2.822100 -35.458825 -3.259771 -17.710158 -19.300016 -8.705243 40.499477 -4.758731 -8.708843 -19.573189 -3.548465 19.092455 -3.148467 -0.812130 -0.938696 0.000000 0.000000 0.000000 2.822100 -35.458825 -3.259771 6.263356 4.099013 -0.876227 12.632940 7.773745 -2.210915 0.000000 0.000000 0.000000 0.000000 0.000000 0.000000 12.632946 7.773740 -2.210913 -6.197448 -2.053143 -1.054634 -10.757923 18.868830 0.448698 0.000000 0.000000 0.000000 12.632946 7.773740 -2.210913 2.357281 -3.333946 -4.567951 0.000000 0.000000 0.000000 -0.673007 4.524658 -59.057340 17.457875 -61.904217 5.584641 0.000000 0.000000 0.000000 12.632946 7.773740 -2.210913 2.065882 7.068654 5.762660 0.000000 0.000000 0.000000 -1.782052 -15.925686 59.508631 8.094042 46.911235 -4.976472 0.000000 0.000000 0.000000 
-0.311994 90.807945 -4.847038 0.000000 0.000000 0.000000 6.431516 -33.007115 -3.461202 -56.493236 6.487466 24.014021 38.086781 2.780796 3.889021 8.791235 -15.135848 -6.530024 -1.831697 -2.539450 0.636360 0.000000 0.000000 0.000000 6.431516 -33.007115 -3.461202 -24.254965 -22.139355 -4.901904 46.372651 -3.446391 -13.850891 -19.765995 -3.657294 19.358459 -5.775906 -0.450403 -0.786006 0.000000 0.000000 0.000000 6.431516 -33.007115 -3.461202 6.475748 3.874354 -0.724031 13.039012 7.269543 -1.883570 0.000000 0.000000 0.000000 0.000000 0.000000 0.000000 13.039015 7.269536 -1.883565 -7.709492 -2.284249 -1.179688 -12.495946 18.745476 0.668797 0.000000 0.000000 0.000000 13.039015 7.269536 -1.883565 2.541884 -3.996365 -4.104065 0.000000 0.000000 0.000000 3.844357 5.529226 -58.239418 18.362610 -67.236266 4.145670 0.000000 0.000000 0.000000 13.039015 7.269536 -1.883565 2.225799 6.468774 4.718923 0.000000 0.000000 0.000000 0.566025 -13.018698 59.992871 12.907463 50.137174 -11.237131 0.000000 0.000000 0.000000 
-0.346942 88.812035 -6.043098 0.000000 0.000000 0.000000 10.418654 -30.667584 -3.722257 -65.416670 4.970828 26.020695 40.850074 5.628267 4.279181 11.721329 -19.089358 -5.167126 -1.706172 -2.365243 0.592978 0.000000 0.000000 0.000000 10.418654 -30.667584 -3.722257 -31.462703 -24.499031 -1.577255 53.106743 -2.824261 -18.376984 -19.658034 -3.784714 18.912145 -9.095193 -0.151248 -0.003083 0.000000 0.000000 0.000000 10.418654 -30.667584 -3.722257 6.608772 3.698392 -0.482431 13.285836 6.841419 -1.403366 0.000000 0.000000 0.000000 0.000000 0.000000 0.000000 13.285860 6.841414 -1.403370 -8.647346 -2.516310 -1.689421 -15.014450 18.496203 1.149098 0.000000 0.000000 0.000000 13.285860 6.841414 -1.403370 2.771477 -4.632627 -3.461041 0.000000 0.000000 0.000000 6.978050 5.471221 -58.804104 18.912505 -70.132751 2.932093 0.000000 0.000000 0.000000 13.285860 6.841414 -1.403370 2.280019 5.893932 4.366410 0.000000 0.000000 0.000000 4.276430 -9.959381 59.805881 18.289918 53.568798 -18.636726 0.000000 0.000000 0.000000 
-0.310868 86.098259 -7.383606 0.000000 0.000000 0.000000 14.779138 -28.540372 -3.934720 -75.552028 2.398589 26.397600 45.251765 8.075361 5.016121 13.075508 -23.995068 -3.152264 -1.582730 -2.194116 0.550149 0.000000 0.000000 0.000000 14.779138 -28.540372 -3.934720 -39.884087 -26.518264 1.043590 60.922835 -3.614482 -21.875008 -20.420749 -3.910556 18.254913 -11.284285 -0.073968 0.761370 0.000000 0.000000 0.000000 14.779138 -28.540372 -3.934720 6.739721 3.591652 -0.245024 13.528808 6.529408 -0.902161 0.000000 0.000000 0.000000 0.000000 0.000000 0.000000 13.528828 6.529406 -0.902167 -11.317953 -2.783780 -2.005707 -16.176072 18.239496 1.489363 0.000000 0.000000 0.000000 13.528828 6.529406 -0.902167 3.007499 -4.900678 -2.564248 0.000000 0.000000 0.000000 8.635946 4.691540 -60.138122 17.523658 -71.588265 0.922461 0.000000 0.000000 0.000000 13.528828 6.529406 -0.902167 2.283570 4.200415 3.283144 0.000000 0.000000 0.000000 6.977821 -5.630675 59.840510 23.111296 56.055895 -25.486205 0.000000 0.000000 0.000000 
-0.322051 82.976410 -8.943916 0.000000 0.000000 0.000000 19.423468 -26.746293 -4.055838 -85.660346 -1.097234 25.411698 49.303318 9.697288 5.791690 15.078631 -27.215394 -1.722170 -1.495435 -2.073111 0.519800 0.000000 0.000000 0.000000 19.423468 -26.746293 -4.055838 -49.111621 -28.620659 2.915361 68.470666 -5.578093 -24.098080 -21.417272 -3.985098 17.680284 -12.871109 -0.634443 1.119504 0.000000 0.000000 0.000000 19.423468 -26.746293 -4.055838 6.913033 3.550527 -0.068013 13.859668 6.330718 -0.494758 0.000000 0.000000 0.000000 0.000000 0.000000 0.000000 13.859656 6.330714 -0.494754 -15.861146 -3.091247 -2.047056 -15.870375 18.009409 1.684376 0.000000 0.000000 0.000000 13.859656 6.330714 -0.494754 3.297016 -4.877436 -0.960895 0.000000 0.000000 0.000000 8.676681 3.364635 -62.664110 16.000714 -71.916599 0.422659 0.000000 0.000000 0.000000 13.859656 6.330714 -0.494754 2.221279 1.439777 1.207226 0.000000 0.000000 0.000000 5.805649 -1.954887 60.403031 26.674826 57.052393 -29.189534 0.000000 0.000000 0.000000 
-0.332880 80.004791 -10.546261 0.000000 0.000000 0.000000 24.076089 -25.321302 -4.147856 -95.295592 -3.641446 24.447096 52.238462 9.972170 5.945134 17.806430 -29.250852 0.241076 -1.459462 -2.023258 0.507289 0.000000 0.000000 0.000000 24.076089 -25.321302 -4.147856 -58.401293 -30.893024 4.040072 74.595583 -8.472902 -25.270624 -22.075054 -3.992932 17.162052 -13.644300 -0.666255 1.482497 0.000000 0.000000 0.000000 24.076089 -25.321302 -4.147856 7.139543 3.535589 0.014705 14.301708 6.178381 -0.262481 0.000000 0.000000 0.000000 0.000000 0.000000 0.000000 14.301717 6.178377 -0.262481 -21.017908 -3.498629 -1.911155 -15.158010 17.843528 1.901892 0.000000 0.000000 0.000000 14.301717 6.178377 -0.262481 3.442308 -3.744910 1.260612 0.000000 0.000000 0.000000 6.542706 1.007385 -66.460978 16.170924 -69.657459 3.224617 0.000000 0.000000 0.000000 14.301717 6.178377 -0.262481 2.091384 -0.743834 -0.161269 0.000000 0.000000 0.000000 1.113404 -1.509666 60.899360 28.881212 57.126203 -29.758151 0.000000 0.000000 0.000000 
-0.421636 77.253288 -12.016582 0.000000 0.000000 0.000000 28.323686 -24.161552 -4.286205 -103.902614 -5.524146 23.255061 54.403030 9.145495 5.894478 20.611498 -29.917120 1.975187 -1.443484 -2.001331 0.504518 0.000000 0.000000 0.000000 28.323686 -24.161552 -4.286205 -67.251333 -33.197950 4.636475 79.331472 -12.681504 -26.103824 -22.417688 -3.773455 16.785572 -13.490415 -0.616279 2.398430 0.000000 0.000000 0.000000 28.323686 -24.161552 -4.286205 7.449755 3.503226 0.077820 14.912596 5.989548 -0.069665 0.000000 0.000000 0.000000 0.000000 0.000000 0.000000 14.912606 5.989543 -0.069656 -26.443446 -3.635250 -2.223951 -14.205842 17.434504 2.333115 0.000000 0.000000 0.000000 14.912606 5.989543 -0.069656 3.352761 -1.685411 3.477812 0.000000 0.000000 0.000000 2.557567 -1.587213 -70.953105 15.457054 -65.902385 6.432448 0.000000 0.000000 0.000000 14.912606 5.989543 -0.069656 1.981308 -2.892398 -1.689583 0.000000 0.000000 0.000000 -4.456345 0.262135 62.391148 27.553746 55.168736 -28.652463 0.000000 0.000000 0.000000 
